# xmcd CD database file generated by MAGIX-FreeDB-PlayR v2.0beta1
# 
# Track frame offsets:
#      150
#      17850
#      35007
#      50962
#      68275
#      85865
#      103097
#      120427
#      136392
#      154020
#      169985
#      186267
#      203422
#      220970
#      239847
#      258377
# 
# Disc length: 3642 seconds
# 
# Revision: 1 
# Processed by: cddbd v1.5.2PL0 Copyright (c) Steve Scherf et al.
# Submitted via: MAGIX-FreeDB-PlayR v2.0beta1
# 
DISCID=e60e3810
DTITLE=Oliver Frank - Samstag Nacht
DYEAR=1993
DGENRE=Discofox
TTITLE0=Oliver Frank - Es ist wieder Sommer in der Stadt
TTITLE1=Oliver Frank - Liza Maria
TTITLE2=Oliver Frank - Zum Frühstück nach Paris
TTITLE3=Oliver Frank - SOS am Strand von Griechenland (Remix '93)
TTITLE4=Oliver Frank - Senora Senora
TTITLE5=Oliver Frank - Samstag Nacht
TTITLE6=Oliver Frank - Haben Sie heute schon je t'aime gesagt
TTITLE7=Oliver Frank - Nie so geliebt
TTITLE8=Oliver Frank - Ciao Bella Italia
TTITLE9=Oliver Frank - Rendezvous im Paradies
TTITLE10=Oliver Frank - Leih' mir nochmal deine Liebe
TTITLE11=Oliver Frank - Bambolero
TTITLE12=Oliver Frank - Sehnsucht heisst Ich liebe dich
TTITLE13=Oliver Frank - Katharina
TTITLE14=Oliver Frank - Hello Baby Blue
TTITLE15=Oliver Frank - Leben mit dir
EXTD=
EXTT0=
EXTT1=
EXTT2=
EXTT3=
EXTT4=
EXTT5=
EXTT6=
EXTT7=
EXTT8=
EXTT9=
EXTT10=
EXTT11=
EXTT12=
EXTT13=
EXTT14=
EXTT15=
PLAYORDER=
